<svg xmlns="http://www.w3.org/2000/svg" viewBox="0 0 120 120">
  <defs>
    <radialGradient id="glow" cx="60" cy="55" r="30" gradientUnits="userSpaceOnUse">
      <stop offset="0%" stop-color="#FBBF24" stop-opacity="0.8" />
      <stop offset="70%" stop-color="#FBBF24" stop-opacity="0.1" />
      <stop offset="100%" stop-color="#FBBF24" stop-opacity="0" />
    </radialGradient>
    <style>
      .network-path { stroke: #1D4ED8; stroke-width: 4; stroke-linecap: round; }
      .network-node { fill: #1D4ED8; }
      .center-node { fill: #F59E0B; }
    </style>
  </defs>

  <rect width="120" height="120" rx="28" fill="#0F172A" />
  <circle cx="60" cy="55" r="28" fill="url(#glow)" />

  <line x1="60" y1="55" x2="40" y2="35" class="network-path" />
  <line x1="60" y1="55" x2="80" y2="35" class="network-path" />
  <line x1="60" y1="55" x2="50" y2="75" class="network-path" />
  <line x1="60" y1="55" x2="70" y2="75" class="network-path" />
  <line x1="40" y1="35" x2="25" y2="50" class="network-path" />
  <line x1="40" y1="35" x2="55" y2="20" class="network-path" />
  <line x1="80" y1="35" x2="95" y2="50" class="network-path" />
  <line x1="80" y1="35" x2="65" y2="20" class="network-path" />
  <line x1="50" y1="75" x2="35" y2="90" class="network-path" />
  <line x1="50" y1="75" x2="65" y2="90" class="network-path" />
  <line x1="70" y1="75" x2="85" y2="90" class="network-path" />
  <line x1="25" y1="50" x2="35" y2="70" class="network-path" />
  <line x1="95" y1="50" x2="85" y2="70" class="network-path" />

  <circle cx="40" cy="35" r="7" class="network-node" />
  <circle cx="80" cy="35" r="7" class="network-node" />
  <circle cx="50" cy="75" r="7" class="network-node" />
  <circle cx="70" cy="75" r="7" class="network-node" />
  <circle cx="25" cy="50" r="6" class="network-node" />
  <circle cx="95" cy="50" r="6" class="network-node" />
  <circle cx="55" cy="20" r="5" class="network-node" />
  <circle cx="65" cy="20" r="4" class="network-node" />
  <circle cx="35" cy="90" r="5" class="network-node" />
  <circle cx="85" cy="90" r="5" class="network-node" />
  <circle cx="65" cy="90" r="4" class="network-node" />
  <circle cx="35" cy="70" r="4" class="network-node" />
  <circle cx="85" cy="70" r="4" class="network-node" />

  <circle cx="60" cy="55" r="10" class="center-node" />
</svg>
